<?xml version="1.0" standalone="no"?>
<!DOCTYPE svg PUBLIC "-//W3C//DTD SVG 20010904//EN"
 "http://www.w3.org/TR/2001/REC-SVG-20010904/DTD/svg10.dtd">
<svg version="1.0" xmlns="http://www.w3.org/2000/svg"
 width="200.000000pt" height="200.000000pt" viewBox="0 0 200.000000 200.000000"
 preserveAspectRatio="xMidYMid meet">

<g transform="translate(0.000000,200.000000) scale(0.100000,-0.100000)"
fill="#000000" stroke="none">
<path d="M0 1000 l0 -1000 1000 0 1000 0 0 1000 0 1000 -1000 0 -1000 0 0
-1000z m980 150 l0 -650 -50 0 -50 0 -2 245 -3 245 -335 -394 c-184 -217 -336
-394 -337 -392 -3 3 770 1595 775 1596 1 0 2 -292 2 -650z m140 405 c0 -135 2
-245 5 -245 2 0 141 100 307 223 167 122 319 233 338 247 44 30 59 50 -227
-293 -128 -153 -233 -282 -233 -288 0 -5 111 -230 246 -500 135 -270 244 -493
242 -495 -2 -1 -154 174 -338 391 l-335 394 -3 -244 -2 -245 -50 0 -50 0 0
650 0 650 50 0 50 0 0 -245z m693 -892 c-7 -2 -13 -18 -13 -34 0 -16 -4 -29
-10 -29 -5 0 -10 13 -10 29 0 20 -6 31 -17 34 -10 3 0 5 22 5 22 0 34 -2 28
-5z m54 -4 c8 -8 13 -8 17 0 16 25 36 11 36 -24 0 -19 -4 -35 -10 -35 -5 0
-10 10 -10 21 0 17 -3 19 -13 10 -10 -8 -17 -7 -25 1 -9 9 -12 7 -12 -10 0
-12 -4 -22 -10 -22 -5 0 -10 16 -10 35 0 36 15 46 37 24z"/>
</g>
</svg>
